<mxfile host="Electron" agent="Mozilla/5.0 (Windows NT 10.0; Win64; x64) AppleWebKit/537.36 (KHTML, like Gecko) draw.io/25.0.2 Chrome/128.0.6613.186 Electron/32.2.5 Safari/537.36" version="25.0.2">
  <diagram id="R2lEEEUBdFMjLlhIrx00" name="Page-1">
    <mxGraphModel dx="824" dy="884" grid="1" gridSize="10" guides="1" tooltips="1" connect="1" arrows="1" fold="1" page="1" pageScale="1" pageWidth="850" pageHeight="1100" math="0" shadow="0" extFonts="Permanent Marker^https://fonts.googleapis.com/css?family=Permanent+Marker">
      <root>
        <mxCell id="0" />
        <mxCell id="1" parent="0" />
        <mxCell id="h5iw6vHmCiw72O9xtH7j-2" style="edgeStyle=orthogonalEdgeStyle;rounded=0;orthogonalLoop=1;jettySize=auto;html=1;exitX=1;exitY=0.5;exitDx=0;exitDy=0;entryX=0.5;entryY=0;entryDx=0;entryDy=0;endArrow=none;endFill=0;" parent="1" source="h5iw6vHmCiw72O9xtH7j-3" target="h5iw6vHmCiw72O9xtH7j-15" edge="1">
          <mxGeometry relative="1" as="geometry" />
        </mxCell>
        <mxCell id="h5iw6vHmCiw72O9xtH7j-3" value="Cliente" style="whiteSpace=wrap;html=1;align=center;" parent="1" vertex="1">
          <mxGeometry x="1135.63" y="884" width="100" height="40" as="geometry" />
        </mxCell>
        <mxCell id="h5iw6vHmCiw72O9xtH7j-5" style="edgeStyle=orthogonalEdgeStyle;rounded=0;orthogonalLoop=1;jettySize=auto;html=1;entryX=0;entryY=0.5;entryDx=0;entryDy=0;endArrow=none;endFill=0;" parent="1" source="h5iw6vHmCiw72O9xtH7j-6" target="h5iw6vHmCiw72O9xtH7j-3" edge="1">
          <mxGeometry relative="1" as="geometry" />
        </mxCell>
        <mxCell id="h5iw6vHmCiw72O9xtH7j-6" value="codigo" style="ellipse;whiteSpace=wrap;html=1;align=center;fontStyle=4;" parent="1" vertex="1">
          <mxGeometry x="1075.63" y="814" width="60" height="40" as="geometry" />
        </mxCell>
        <mxCell id="h5iw6vHmCiw72O9xtH7j-7" value="nombre" style="ellipse;whiteSpace=wrap;html=1;align=center;" parent="1" vertex="1">
          <mxGeometry x="1145.63" y="954" width="60" height="40" as="geometry" />
        </mxCell>
        <mxCell id="h5iw6vHmCiw72O9xtH7j-8" style="edgeStyle=orthogonalEdgeStyle;rounded=0;orthogonalLoop=1;jettySize=auto;html=1;entryX=0.75;entryY=1;entryDx=0;entryDy=0;endArrow=none;endFill=0;" parent="1" source="h5iw6vHmCiw72O9xtH7j-9" target="h5iw6vHmCiw72O9xtH7j-3" edge="1">
          <mxGeometry relative="1" as="geometry" />
        </mxCell>
        <mxCell id="h5iw6vHmCiw72O9xtH7j-9" value="direccion" style="ellipse;whiteSpace=wrap;html=1;align=center;" parent="1" vertex="1">
          <mxGeometry x="1185.63" y="1014" width="70" height="40" as="geometry" />
        </mxCell>
        <mxCell id="h5iw6vHmCiw72O9xtH7j-10" value="telefono" style="ellipse;whiteSpace=wrap;html=1;align=center;" parent="1" vertex="1">
          <mxGeometry x="1105.63" y="1014" width="70" height="40" as="geometry" />
        </mxCell>
        <mxCell id="h5iw6vHmCiw72O9xtH7j-11" style="edgeStyle=orthogonalEdgeStyle;rounded=0;orthogonalLoop=1;jettySize=auto;html=1;entryX=0;entryY=0.5;entryDx=0;entryDy=0;endArrow=none;endFill=0;" parent="1" source="h5iw6vHmCiw72O9xtH7j-12" target="h5iw6vHmCiw72O9xtH7j-3" edge="1">
          <mxGeometry relative="1" as="geometry" />
        </mxCell>
        <mxCell id="h5iw6vHmCiw72O9xtH7j-12" value="&lt;span style=&quot;border-bottom: 1px dotted&quot;&gt;DNI&lt;/span&gt;" style="ellipse;whiteSpace=wrap;html=1;align=center;" parent="1" vertex="1">
          <mxGeometry x="1075.63" y="954" width="60" height="40" as="geometry" />
        </mxCell>
        <mxCell id="h5iw6vHmCiw72O9xtH7j-13" style="edgeStyle=orthogonalEdgeStyle;rounded=0;orthogonalLoop=1;jettySize=auto;html=1;entryX=0.4;entryY=1;entryDx=0;entryDy=0;entryPerimeter=0;endArrow=none;endFill=0;" parent="1" source="h5iw6vHmCiw72O9xtH7j-7" target="h5iw6vHmCiw72O9xtH7j-3" edge="1">
          <mxGeometry relative="1" as="geometry" />
        </mxCell>
        <mxCell id="h5iw6vHmCiw72O9xtH7j-14" style="edgeStyle=orthogonalEdgeStyle;rounded=0;orthogonalLoop=1;jettySize=auto;html=1;entryX=0.05;entryY=0.993;entryDx=0;entryDy=0;entryPerimeter=0;endArrow=none;endFill=0;" parent="1" source="h5iw6vHmCiw72O9xtH7j-10" target="h5iw6vHmCiw72O9xtH7j-3" edge="1">
          <mxGeometry relative="1" as="geometry" />
        </mxCell>
        <mxCell id="h5iw6vHmCiw72O9xtH7j-15" value="avala" style="shape=rhombus;perimeter=rhombusPerimeter;whiteSpace=wrap;html=1;align=center;" parent="1" vertex="1">
          <mxGeometry x="1270.63" y="964" width="80" height="40" as="geometry" />
        </mxCell>
        <mxCell id="h5iw6vHmCiw72O9xtH7j-16" style="edgeStyle=orthogonalEdgeStyle;rounded=0;orthogonalLoop=1;jettySize=auto;html=1;entryX=0.905;entryY=1.038;entryDx=0;entryDy=0;entryPerimeter=0;" parent="1" source="h5iw6vHmCiw72O9xtH7j-15" target="h5iw6vHmCiw72O9xtH7j-3" edge="1">
          <mxGeometry relative="1" as="geometry" />
        </mxCell>
        <mxCell id="h5iw6vHmCiw72O9xtH7j-17" value="(0,n)" style="text;html=1;align=center;verticalAlign=middle;resizable=0;points=[];autosize=1;strokeColor=none;fillColor=none;" parent="1" vertex="1">
          <mxGeometry x="1235.63" y="954" width="50" height="30" as="geometry" />
        </mxCell>
        <mxCell id="h5iw6vHmCiw72O9xtH7j-18" value="(0,1)" style="text;html=1;align=center;verticalAlign=middle;resizable=0;points=[];autosize=1;strokeColor=none;fillColor=none;" parent="1" vertex="1">
          <mxGeometry x="1260.63" y="904" width="50" height="30" as="geometry" />
        </mxCell>
        <mxCell id="h5iw6vHmCiw72O9xtH7j-19" value="1:N" style="text;html=1;align=center;verticalAlign=middle;resizable=0;points=[];autosize=1;strokeColor=none;fillColor=none;" parent="1" vertex="1">
          <mxGeometry x="1325.63" y="952" width="40" height="30" as="geometry" />
        </mxCell>
        <mxCell id="h5iw6vHmCiw72O9xtH7j-46" value="Coche" style="whiteSpace=wrap;html=1;align=center;" parent="1" vertex="1">
          <mxGeometry x="1243.7600000000002" y="1636" width="100" height="40" as="geometry" />
        </mxCell>
        <mxCell id="h5iw6vHmCiw72O9xtH7j-47" value="Reserva" style="whiteSpace=wrap;html=1;align=center;" parent="1" vertex="1">
          <mxGeometry x="1243.7600000000002" y="1356" width="100" height="40" as="geometry" />
        </mxCell>
        <mxCell id="h5iw6vHmCiw72O9xtH7j-63" style="edgeStyle=orthogonalEdgeStyle;rounded=0;orthogonalLoop=1;jettySize=auto;html=1;entryX=0;entryY=0;entryDx=0;entryDy=0;endArrow=none;endFill=0;" parent="1" source="h5iw6vHmCiw72O9xtH7j-64" target="h5iw6vHmCiw72O9xtH7j-47" edge="1">
          <mxGeometry relative="1" as="geometry" />
        </mxCell>
        <mxCell id="h5iw6vHmCiw72O9xtH7j-64" value="codigo" style="ellipse;whiteSpace=wrap;html=1;align=center;fontStyle=4;" parent="1" vertex="1">
          <mxGeometry x="1203.7600000000002" y="1296" width="50" height="40" as="geometry" />
        </mxCell>
        <mxCell id="h5iw6vHmCiw72O9xtH7j-65" style="edgeStyle=orthogonalEdgeStyle;rounded=0;orthogonalLoop=1;jettySize=auto;html=1;entryX=0.5;entryY=0;entryDx=0;entryDy=0;endArrow=none;endFill=0;" parent="1" source="h5iw6vHmCiw72O9xtH7j-66" target="h5iw6vHmCiw72O9xtH7j-47" edge="1">
          <mxGeometry relative="1" as="geometry" />
        </mxCell>
        <mxCell id="h5iw6vHmCiw72O9xtH7j-66" value="litros" style="ellipse;whiteSpace=wrap;html=1;align=center;" parent="1" vertex="1">
          <mxGeometry x="1266.2600000000002" y="1296" width="55" height="40" as="geometry" />
        </mxCell>
        <mxCell id="h5iw6vHmCiw72O9xtH7j-67" value="fecha_inicio" style="ellipse;whiteSpace=wrap;html=1;align=center;" parent="1" vertex="1">
          <mxGeometry x="1218.7600000000002" y="1246" width="85" height="40" as="geometry" />
        </mxCell>
        <mxCell id="h5iw6vHmCiw72O9xtH7j-68" value="fecha_fin" style="ellipse;whiteSpace=wrap;html=1;align=center;" parent="1" vertex="1">
          <mxGeometry x="1321.2600000000002" y="1236" width="85" height="40" as="geometry" />
        </mxCell>
        <mxCell id="h5iw6vHmCiw72O9xtH7j-72" style="edgeStyle=orthogonalEdgeStyle;rounded=0;orthogonalLoop=1;jettySize=auto;html=1;entryX=0.5;entryY=1;entryDx=0;entryDy=0;" parent="1" source="h5iw6vHmCiw72O9xtH7j-74" target="h5iw6vHmCiw72O9xtH7j-47" edge="1">
          <mxGeometry relative="1" as="geometry" />
        </mxCell>
        <mxCell id="h5iw6vHmCiw72O9xtH7j-73" style="edgeStyle=orthogonalEdgeStyle;rounded=0;orthogonalLoop=1;jettySize=auto;html=1;entryX=0.5;entryY=0;entryDx=0;entryDy=0;" parent="1" source="h5iw6vHmCiw72O9xtH7j-74" target="h5iw6vHmCiw72O9xtH7j-46" edge="1">
          <mxGeometry relative="1" as="geometry" />
        </mxCell>
        <mxCell id="h5iw6vHmCiw72O9xtH7j-74" value="involucra" style="shape=rhombus;perimeter=rhombusPerimeter;whiteSpace=wrap;html=1;align=center;" parent="1" vertex="1">
          <mxGeometry x="1253.7600000000002" y="1496" width="80" height="40" as="geometry" />
        </mxCell>
        <mxCell id="h5iw6vHmCiw72O9xtH7j-85" style="edgeStyle=orthogonalEdgeStyle;rounded=0;orthogonalLoop=1;jettySize=auto;html=1;exitX=0.5;exitY=1;exitDx=0;exitDy=0;entryX=0.175;entryY=0.006;entryDx=0;entryDy=0;entryPerimeter=0;endArrow=none;endFill=0;" parent="1" source="h5iw6vHmCiw72O9xtH7j-67" target="h5iw6vHmCiw72O9xtH7j-47" edge="1">
          <mxGeometry relative="1" as="geometry" />
        </mxCell>
        <mxCell id="h5iw6vHmCiw72O9xtH7j-86" style="edgeStyle=orthogonalEdgeStyle;rounded=0;orthogonalLoop=1;jettySize=auto;html=1;entryX=0.83;entryY=0.005;entryDx=0;entryDy=0;entryPerimeter=0;endArrow=none;endFill=0;" parent="1" source="h5iw6vHmCiw72O9xtH7j-68" target="h5iw6vHmCiw72O9xtH7j-47" edge="1">
          <mxGeometry relative="1" as="geometry">
            <Array as="points">
              <mxPoint x="1338.7600000000002" y="1316" />
              <mxPoint x="1327.7600000000002" y="1316" />
              <mxPoint x="1327.7600000000002" y="1356" />
            </Array>
          </mxGeometry>
        </mxCell>
        <mxCell id="h5iw6vHmCiw72O9xtH7j-90" value="(1,n)" style="text;html=1;align=center;verticalAlign=middle;resizable=0;points=[];autosize=1;strokeColor=none;fillColor=none;" parent="1" vertex="1">
          <mxGeometry x="1308.7600000000002" y="1606" width="50" height="30" as="geometry" />
        </mxCell>
        <mxCell id="h5iw6vHmCiw72O9xtH7j-91" value="(1,1)" style="text;html=1;align=center;verticalAlign=middle;resizable=0;points=[];autosize=1;strokeColor=none;fillColor=none;" parent="1" vertex="1">
          <mxGeometry x="1308.7600000000002" y="1406" width="50" height="30" as="geometry" />
        </mxCell>
        <mxCell id="h5iw6vHmCiw72O9xtH7j-92" value="1:N" style="text;html=1;align=center;verticalAlign=middle;resizable=0;points=[];autosize=1;strokeColor=none;fillColor=none;" parent="1" vertex="1">
          <mxGeometry x="1318.7600000000002" y="1484" width="40" height="30" as="geometry" />
        </mxCell>
        <mxCell id="h5iw6vHmCiw72O9xtH7j-95" style="edgeStyle=orthogonalEdgeStyle;rounded=0;orthogonalLoop=1;jettySize=auto;html=1;entryX=1;entryY=0.5;entryDx=0;entryDy=0;endArrow=none;endFill=0;" parent="1" source="h5iw6vHmCiw72O9xtH7j-96" target="h5iw6vHmCiw72O9xtH7j-74" edge="1">
          <mxGeometry relative="1" as="geometry" />
        </mxCell>
        <mxCell id="h5iw6vHmCiw72O9xtH7j-96" value="precio_alquiler" style="ellipse;whiteSpace=wrap;html=1;align=center;" parent="1" vertex="1">
          <mxGeometry x="1368.7600000000002" y="1496" width="90" height="40" as="geometry" />
        </mxCell>
        <mxCell id="h5iw6vHmCiw72O9xtH7j-97" style="edgeStyle=orthogonalEdgeStyle;rounded=0;orthogonalLoop=1;jettySize=auto;html=1;entryX=1;entryY=0;entryDx=0;entryDy=0;endArrow=none;endFill=0;" parent="1" source="h5iw6vHmCiw72O9xtH7j-98" target="h5iw6vHmCiw72O9xtH7j-47" edge="1">
          <mxGeometry relative="1" as="geometry" />
        </mxCell>
        <mxCell id="h5iw6vHmCiw72O9xtH7j-98" value="precio_total" style="ellipse;whiteSpace=wrap;html=1;align=center;dashed=1;" parent="1" vertex="1">
          <mxGeometry x="1368.7600000000002" y="1284" width="90" height="40" as="geometry" />
        </mxCell>
        <mxCell id="h5iw6vHmCiw72O9xtH7j-99" value="indicador" style="ellipse;whiteSpace=wrap;html=1;align=center;" parent="1" vertex="1">
          <mxGeometry x="1162.5100000000002" y="1416" width="76.25" height="30" as="geometry" />
        </mxCell>
        <mxCell id="h5iw6vHmCiw72O9xtH7j-100" style="edgeStyle=orthogonalEdgeStyle;rounded=0;orthogonalLoop=1;jettySize=auto;html=1;entryX=0.143;entryY=1.044;entryDx=0;entryDy=0;entryPerimeter=0;endArrow=none;endFill=0;" parent="1" source="h5iw6vHmCiw72O9xtH7j-99" target="h5iw6vHmCiw72O9xtH7j-47" edge="1">
          <mxGeometry relative="1" as="geometry" />
        </mxCell>
        <mxCell id="h5iw6vHmCiw72O9xtH7j-101" value="&lt;span style=&quot;color: rgb(0, 0, 0); font-family: Helvetica; font-size: 12px; font-style: normal; font-variant-ligatures: normal; font-variant-caps: normal; font-weight: 400; letter-spacing: normal; orphans: 2; text-align: left; text-indent: 0px; text-transform: none; widows: 2; word-spacing: 0px; -webkit-text-stroke-width: 0px; white-space: nowrap; background-color: rgb(251, 251, 251); text-decoration-thickness: initial; text-decoration-style: initial; text-decoration-color: initial; display: inline !important; float: none;&quot;&gt;Se desea diseñar una base de datos sobre la información de las reservas de una empresa dedicada al alquiler de automóviles&amp;nbsp;&lt;/span&gt;&lt;br style=&quot;forced-color-adjust: none; padding: 0px; margin: 0px; color: rgb(0, 0, 0); font-family: Helvetica; font-size: 12px; font-style: normal; font-variant-ligatures: normal; font-variant-caps: normal; font-weight: 400; letter-spacing: normal; orphans: 2; text-align: left; text-indent: 0px; text-transform: none; widows: 2; word-spacing: 0px; -webkit-text-stroke-width: 0px; white-space: nowrap; background-color: rgb(251, 251, 251); text-decoration-thickness: initial; text-decoration-style: initial; text-decoration-color: initial;&quot;&gt;&lt;span style=&quot;color: rgb(0, 0, 0); font-family: Helvetica; font-size: 12px; font-style: normal; font-variant-ligatures: normal; font-variant-caps: normal; font-weight: 400; letter-spacing: normal; orphans: 2; text-align: left; text-indent: 0px; text-transform: none; widows: 2; word-spacing: 0px; -webkit-text-stroke-width: 0px; white-space: nowrap; background-color: rgb(251, 251, 251); text-decoration-thickness: initial; text-decoration-style: initial; text-decoration-color: initial; display: inline !important; float: none;&quot;&gt;teniendo en cuenta que:&lt;/span&gt;&lt;br style=&quot;forced-color-adjust: none; padding: 0px; margin: 0px; color: rgb(0, 0, 0); font-family: Helvetica; font-size: 12px; font-style: normal; font-variant-ligatures: normal; font-variant-caps: normal; font-weight: 400; letter-spacing: normal; orphans: 2; text-align: left; text-indent: 0px; text-transform: none; widows: 2; word-spacing: 0px; -webkit-text-stroke-width: 0px; white-space: nowrap; background-color: rgb(251, 251, 251); text-decoration-thickness: initial; text-decoration-style: initial; text-decoration-color: initial;&quot;&gt;" style="text;whiteSpace=wrap;html=1;" parent="1" vertex="1">
          <mxGeometry x="878.13" y="40" width="560" height="50" as="geometry" />
        </mxCell>
        <mxCell id="h5iw6vHmCiw72O9xtH7j-102" value="&lt;span style=&quot;color: rgb(0, 0, 0); font-family: Helvetica; font-size: 12px; font-style: normal; font-variant-ligatures: normal; font-variant-caps: normal; font-weight: 400; letter-spacing: normal; orphans: 2; text-align: left; text-indent: 0px; text-transform: none; widows: 2; word-spacing: 0px; -webkit-text-stroke-width: 0px; white-space: nowrap; background-color: rgb(251, 251, 251); text-decoration-thickness: initial; text-decoration-style: initial; text-decoration-color: initial; display: inline !important; float: none;&quot;&gt;Un determinado cliente puede tener en un momento dado hechas varias reservas.&lt;/span&gt;&lt;br style=&quot;forced-color-adjust: none; padding: 0px; margin: 0px; color: rgb(0, 0, 0); font-family: Helvetica; font-size: 12px; font-style: normal; font-variant-ligatures: normal; font-variant-caps: normal; font-weight: 400; letter-spacing: normal; orphans: 2; text-align: left; text-indent: 0px; text-transform: none; widows: 2; word-spacing: 0px; -webkit-text-stroke-width: 0px; white-space: nowrap; background-color: rgb(251, 251, 251); text-decoration-thickness: initial; text-decoration-style: initial; text-decoration-color: initial;&quot;&gt;" style="text;whiteSpace=wrap;html=1;" parent="1" vertex="1">
          <mxGeometry x="878.13" y="80" width="470" height="40" as="geometry" />
        </mxCell>
        <mxCell id="h5iw6vHmCiw72O9xtH7j-103" value="&lt;span style=&quot;color: rgb(0, 0, 0); font-family: Helvetica; font-size: 12px; font-style: normal; font-variant-ligatures: normal; font-variant-caps: normal; font-weight: 400; letter-spacing: normal; orphans: 2; text-align: left; text-indent: 0px; text-transform: none; widows: 2; word-spacing: 0px; -webkit-text-stroke-width: 0px; white-space: nowrap; background-color: rgb(251, 251, 251); text-decoration-thickness: initial; text-decoration-style: initial; text-decoration-color: initial; display: inline !important; float: none;&quot;&gt;De cada cliente se desea almacenar su DNI, nombre, dirección y teléfono. Ademas dos clientes se diferencian por un código unico.&lt;/span&gt;&lt;br style=&quot;forced-color-adjust: none; padding: 0px; margin: 0px; color: rgb(0, 0, 0); font-family: Helvetica; font-size: 12px; font-style: normal; font-variant-ligatures: normal; font-variant-caps: normal; font-weight: 400; letter-spacing: normal; orphans: 2; text-align: left; text-indent: 0px; text-transform: none; widows: 2; word-spacing: 0px; -webkit-text-stroke-width: 0px; white-space: nowrap; background-color: rgb(251, 251, 251); text-decoration-thickness: initial; text-decoration-style: initial; text-decoration-color: initial;&quot;&gt;" style="text;whiteSpace=wrap;html=1;" parent="1" vertex="1">
          <mxGeometry x="878.13" y="120" width="560" height="40" as="geometry" />
        </mxCell>
        <mxCell id="h5iw6vHmCiw72O9xtH7j-104" value="&lt;span style=&quot;color: rgb(0, 0, 0); font-family: Helvetica; font-size: 12px; font-style: normal; font-variant-ligatures: normal; font-variant-caps: normal; font-weight: 400; letter-spacing: normal; orphans: 2; text-align: left; text-indent: 0px; text-transform: none; widows: 2; word-spacing: 0px; -webkit-text-stroke-width: 0px; white-space: nowrap; background-color: rgb(251, 251, 251); text-decoration-thickness: initial; text-decoration-style: initial; text-decoration-color: initial; display: inline !important; float: none;&quot;&gt;Cada cliente puede ser avalado por otro cliente de la empresa.&lt;/span&gt;&lt;br style=&quot;forced-color-adjust: none; padding: 0px; margin: 0px; color: rgb(0, 0, 0); font-family: Helvetica; font-size: 12px; font-style: normal; font-variant-ligatures: normal; font-variant-caps: normal; font-weight: 400; letter-spacing: normal; orphans: 2; text-align: left; text-indent: 0px; text-transform: none; widows: 2; word-spacing: 0px; -webkit-text-stroke-width: 0px; white-space: nowrap; background-color: rgb(251, 251, 251); text-decoration-thickness: initial; text-decoration-style: initial; text-decoration-color: initial;&quot;&gt;" style="text;whiteSpace=wrap;html=1;" parent="1" vertex="1">
          <mxGeometry x="878.13" y="160" width="370" height="40" as="geometry" />
        </mxCell>
        <mxCell id="h5iw6vHmCiw72O9xtH7j-105" value="&lt;span style=&quot;color: rgb(0, 0, 0); font-family: Helvetica; font-size: 12px; font-style: normal; font-variant-ligatures: normal; font-variant-caps: normal; font-weight: 400; letter-spacing: normal; orphans: 2; text-align: left; text-indent: 0px; text-transform: none; widows: 2; word-spacing: 0px; -webkit-text-stroke-width: 0px; white-space: nowrap; background-color: rgb(251, 251, 251); text-decoration-thickness: initial; text-decoration-style: initial; text-decoration-color: initial; display: inline !important; float: none;&quot;&gt;Una reserva la realiza un único cliente pero puede involucrar a varios coches.&lt;/span&gt;&lt;br style=&quot;forced-color-adjust: none; padding: 0px; margin: 0px; color: rgb(0, 0, 0); font-family: Helvetica; font-size: 12px; font-style: normal; font-variant-ligatures: normal; font-variant-caps: normal; font-weight: 400; letter-spacing: normal; orphans: 2; text-align: left; text-indent: 0px; text-transform: none; widows: 2; word-spacing: 0px; -webkit-text-stroke-width: 0px; white-space: nowrap; background-color: rgb(251, 251, 251); text-decoration-thickness: initial; text-decoration-style: initial; text-decoration-color: initial;&quot;&gt;" style="text;whiteSpace=wrap;html=1;" parent="1" vertex="1">
          <mxGeometry x="878.13" y="200" width="450" height="40" as="geometry" />
        </mxCell>
        <mxCell id="h5iw6vHmCiw72O9xtH7j-106" value="&lt;span style=&quot;color: rgb(0, 0, 0); font-family: Helvetica; font-size: 12px; font-style: normal; font-variant-ligatures: normal; font-variant-caps: normal; font-weight: 400; letter-spacing: normal; orphans: 2; text-align: left; text-indent: 0px; text-transform: none; widows: 2; word-spacing: 0px; -webkit-text-stroke-width: 0px; white-space: nowrap; background-color: rgb(251, 251, 251); text-decoration-thickness: initial; text-decoration-style: initial; text-decoration-color: initial; display: inline !important; float: none;&quot;&gt;Es importante registrar la fecha de inicio y final de la reserva, el precio del alquiler de cada uno de los coches, los litros de gasolina en el deposito&lt;/span&gt;&lt;br style=&quot;forced-color-adjust: none; padding: 0px; margin: 0px; color: rgb(0, 0, 0); font-family: Helvetica; font-size: 12px; font-style: normal; font-variant-ligatures: normal; font-variant-caps: normal; font-weight: 400; letter-spacing: normal; orphans: 2; text-align: left; text-indent: 0px; text-transform: none; widows: 2; word-spacing: 0px; -webkit-text-stroke-width: 0px; white-space: nowrap; background-color: rgb(251, 251, 251); text-decoration-thickness: initial; text-decoration-style: initial; text-decoration-color: initial;&quot;&gt;&lt;span style=&quot;color: rgb(0, 0, 0); font-family: Helvetica; font-size: 12px; font-style: normal; font-variant-ligatures: normal; font-variant-caps: normal; font-weight: 400; letter-spacing: normal; orphans: 2; text-align: left; text-indent: 0px; text-transform: none; widows: 2; word-spacing: 0px; -webkit-text-stroke-width: 0px; white-space: nowrap; background-color: rgb(251, 251, 251); text-decoration-thickness: initial; text-decoration-style: initial; text-decoration-color: initial; display: inline !important; float: none;&quot;&gt;&amp;nbsp;en el momento de realizar la reserva, el precio total de la reserva y un indicador de si el coche o los coches han sido entregados.&lt;/span&gt;" style="text;whiteSpace=wrap;html=1;verticalAlign=top;" parent="1" vertex="1">
          <mxGeometry x="878.13" y="240" width="560" height="50" as="geometry" />
        </mxCell>
        <mxCell id="h5iw6vHmCiw72O9xtH7j-107" value="&lt;span style=&quot;color: rgb(0, 0, 0); font-family: Helvetica; font-size: 12px; font-style: normal; font-variant-ligatures: normal; font-variant-caps: normal; font-weight: 400; letter-spacing: normal; orphans: 2; text-align: left; text-indent: 0px; text-transform: none; widows: 2; word-spacing: 0px; -webkit-text-stroke-width: 0px; white-space: nowrap; background-color: rgb(251, 251, 251); text-decoration-thickness: initial; text-decoration-style: initial; text-decoration-color: initial; display: inline !important; float: none;&quot;&gt;No se mantienen los datos de reservas anteriores.&lt;/span&gt;&lt;br style=&quot;forced-color-adjust: none; padding: 0px; margin: 0px; color: rgb(0, 0, 0); font-family: Helvetica; font-size: 12px; font-style: normal; font-variant-ligatures: normal; font-variant-caps: normal; font-weight: 400; letter-spacing: normal; orphans: 2; text-align: left; text-indent: 0px; text-transform: none; widows: 2; word-spacing: 0px; -webkit-text-stroke-width: 0px; white-space: nowrap; background-color: rgb(251, 251, 251); text-decoration-thickness: initial; text-decoration-style: initial; text-decoration-color: initial;&quot;&gt;" style="text;whiteSpace=wrap;html=1;" parent="1" vertex="1">
          <mxGeometry x="879.38" y="280" width="300" height="40" as="geometry" />
        </mxCell>
        <mxCell id="h5iw6vHmCiw72O9xtH7j-108" value="&lt;span style=&quot;color: rgb(0, 0, 0); font-family: Helvetica; font-size: 12px; font-style: normal; font-variant-ligatures: normal; font-variant-caps: normal; font-weight: 400; letter-spacing: normal; orphans: 2; text-align: left; text-indent: 0px; text-transform: none; widows: 2; word-spacing: 0px; -webkit-text-stroke-width: 0px; white-space: nowrap; background-color: rgb(251, 251, 251); text-decoration-thickness: initial; text-decoration-style: initial; text-decoration-color: initial; display: inline !important; float: none;&quot;&gt;Todo coche tiene siempre asignado un determinado garaje que no puede cambiar. De cada coche se requiere la matricula, el modelo,&amp;nbsp;&lt;/span&gt;&lt;br style=&quot;forced-color-adjust: none; padding: 0px; margin: 0px; color: rgb(0, 0, 0); font-family: Helvetica; font-size: 12px; font-style: normal; font-variant-ligatures: normal; font-variant-caps: normal; font-weight: 400; letter-spacing: normal; orphans: 2; text-align: left; text-indent: 0px; text-transform: none; widows: 2; word-spacing: 0px; -webkit-text-stroke-width: 0px; white-space: nowrap; background-color: rgb(251, 251, 251); text-decoration-thickness: initial; text-decoration-style: initial; text-decoration-color: initial;&quot;&gt;&lt;span style=&quot;color: rgb(0, 0, 0); font-family: Helvetica; font-size: 12px; font-style: normal; font-variant-ligatures: normal; font-variant-caps: normal; font-weight: 400; letter-spacing: normal; orphans: 2; text-align: left; text-indent: 0px; text-transform: none; widows: 2; word-spacing: 0px; -webkit-text-stroke-width: 0px; white-space: nowrap; background-color: rgb(251, 251, 251); text-decoration-thickness: initial; text-decoration-style: initial; text-decoration-color: initial; display: inline !important; float: none;&quot;&gt;el color y la marca.&lt;/span&gt;" style="text;whiteSpace=wrap;html=1;" parent="1" vertex="1">
          <mxGeometry x="878.13" y="320" width="560" height="50" as="geometry" />
        </mxCell>
        <mxCell id="h5iw6vHmCiw72O9xtH7j-109" value="&lt;span style=&quot;color: rgb(0, 0, 0); font-family: Helvetica; font-size: 12px; font-style: normal; font-variant-ligatures: normal; font-variant-caps: normal; font-weight: 400; letter-spacing: normal; orphans: 2; text-align: left; text-indent: 0px; text-transform: none; widows: 2; word-spacing: 0px; -webkit-text-stroke-width: 0px; white-space: nowrap; background-color: rgb(251, 251, 251); text-decoration-thickness: initial; text-decoration-style: initial; text-decoration-color: initial; display: inline !important; float: none;&quot;&gt;Cada reserva se realiza en una determinada agencia.&lt;/span&gt;" style="text;whiteSpace=wrap;html=1;" parent="1" vertex="1">
          <mxGeometry x="878.13" y="360" width="320" height="40" as="geometry" />
        </mxCell>
        <mxCell id="h5iw6vHmCiw72O9xtH7j-111" value="&lt;span style=&quot;color: rgb(0, 0, 0); font-family: Helvetica; font-size: 12px; font-style: normal; font-variant-ligatures: normal; font-variant-caps: normal; font-weight: 400; letter-spacing: normal; orphans: 2; text-align: left; text-indent: 0px; text-transform: none; widows: 2; word-spacing: 0px; -webkit-text-stroke-width: 0px; white-space: nowrap; background-color: rgb(251, 251, 251); text-decoration-thickness: initial; text-decoration-style: initial; text-decoration-color: initial; display: inline !important; float: none;&quot;&gt;De cada cliente se desea almacenar su DNI, nombre, dirección y teléfono. Ademas dos clientes se diferencian por un código unico.&lt;/span&gt;&lt;br style=&quot;forced-color-adjust: none; padding: 0px; margin: 0px; color: rgb(0, 0, 0); font-family: Helvetica; font-size: 12px; font-style: normal; font-variant-ligatures: normal; font-variant-caps: normal; font-weight: 400; letter-spacing: normal; orphans: 2; text-align: left; text-indent: 0px; text-transform: none; widows: 2; word-spacing: 0px; -webkit-text-stroke-width: 0px; white-space: nowrap; background-color: rgb(251, 251, 251); text-decoration-thickness: initial; text-decoration-style: initial; text-decoration-color: initial;&quot;&gt;" style="text;whiteSpace=wrap;html=1;" parent="1" vertex="1">
          <mxGeometry x="880.63" y="716" width="560" height="40" as="geometry" />
        </mxCell>
        <mxCell id="h5iw6vHmCiw72O9xtH7j-112" value="&lt;span style=&quot;color: rgb(0, 0, 0); font-family: Helvetica; font-size: 12px; font-style: normal; font-variant-ligatures: normal; font-variant-caps: normal; font-weight: 400; letter-spacing: normal; orphans: 2; text-align: left; text-indent: 0px; text-transform: none; widows: 2; word-spacing: 0px; -webkit-text-stroke-width: 0px; white-space: nowrap; background-color: rgb(251, 251, 251); text-decoration-thickness: initial; text-decoration-style: initial; text-decoration-color: initial; display: inline !important; float: none;&quot;&gt;Cada cliente puede ser avalado por otro cliente de la empresa.&lt;/span&gt;&lt;br style=&quot;forced-color-adjust: none; padding: 0px; margin: 0px; color: rgb(0, 0, 0); font-family: Helvetica; font-size: 12px; font-style: normal; font-variant-ligatures: normal; font-variant-caps: normal; font-weight: 400; letter-spacing: normal; orphans: 2; text-align: left; text-indent: 0px; text-transform: none; widows: 2; word-spacing: 0px; -webkit-text-stroke-width: 0px; white-space: nowrap; background-color: rgb(251, 251, 251); text-decoration-thickness: initial; text-decoration-style: initial; text-decoration-color: initial;&quot;&gt;" style="text;whiteSpace=wrap;html=1;" parent="1" vertex="1">
          <mxGeometry x="880.63" y="756" width="370" height="40" as="geometry" />
        </mxCell>
        <mxCell id="h5iw6vHmCiw72O9xtH7j-116" value="&lt;span style=&quot;color: rgb(0, 0, 0); font-family: Helvetica; font-size: 12px; font-style: normal; font-variant-ligatures: normal; font-variant-caps: normal; font-weight: 400; letter-spacing: normal; orphans: 2; text-align: left; text-indent: 0px; text-transform: none; widows: 2; word-spacing: 0px; -webkit-text-stroke-width: 0px; white-space: nowrap; background-color: rgb(251, 251, 251); text-decoration-thickness: initial; text-decoration-style: initial; text-decoration-color: initial; display: inline !important; float: none;&quot;&gt;Un determinado cliente puede tener en un momento dado hechas varias reservas.&lt;/span&gt;&lt;br style=&quot;forced-color-adjust: none; padding: 0px; margin: 0px; color: rgb(0, 0, 0); font-family: Helvetica; font-size: 12px; font-style: normal; font-variant-ligatures: normal; font-variant-caps: normal; font-weight: 400; letter-spacing: normal; orphans: 2; text-align: left; text-indent: 0px; text-transform: none; widows: 2; word-spacing: 0px; -webkit-text-stroke-width: 0px; white-space: nowrap; background-color: rgb(251, 251, 251); text-decoration-thickness: initial; text-decoration-style: initial; text-decoration-color: initial;&quot;&gt;" style="text;whiteSpace=wrap;html=1;" parent="1" vertex="1">
          <mxGeometry x="880.63" y="436" width="470" height="40" as="geometry" />
        </mxCell>
        <mxCell id="h5iw6vHmCiw72O9xtH7j-117" value="&lt;span style=&quot;color: rgb(0, 0, 0); font-family: Helvetica; font-size: 12px; font-style: normal; font-variant-ligatures: normal; font-variant-caps: normal; font-weight: 400; letter-spacing: normal; orphans: 2; text-align: left; text-indent: 0px; text-transform: none; widows: 2; word-spacing: 0px; -webkit-text-stroke-width: 0px; white-space: nowrap; background-color: rgb(251, 251, 251); text-decoration-thickness: initial; text-decoration-style: initial; text-decoration-color: initial; display: inline !important; float: none;&quot;&gt;Una reserva la realiza un único cliente pero puede involucrar a varios coches.&lt;/span&gt;&lt;br style=&quot;forced-color-adjust: none; padding: 0px; margin: 0px; color: rgb(0, 0, 0); font-family: Helvetica; font-size: 12px; font-style: normal; font-variant-ligatures: normal; font-variant-caps: normal; font-weight: 400; letter-spacing: normal; orphans: 2; text-align: left; text-indent: 0px; text-transform: none; widows: 2; word-spacing: 0px; -webkit-text-stroke-width: 0px; white-space: nowrap; background-color: rgb(251, 251, 251); text-decoration-thickness: initial; text-decoration-style: initial; text-decoration-color: initial;&quot;&gt;" style="text;whiteSpace=wrap;html=1;" parent="1" vertex="1">
          <mxGeometry x="878.13" y="1116" width="450" height="40" as="geometry" />
        </mxCell>
        <mxCell id="h5iw6vHmCiw72O9xtH7j-118" value="&lt;span style=&quot;color: rgb(0, 0, 0); font-family: Helvetica; font-size: 12px; font-style: normal; font-variant-ligatures: normal; font-variant-caps: normal; font-weight: 400; letter-spacing: normal; orphans: 2; text-align: left; text-indent: 0px; text-transform: none; widows: 2; word-spacing: 0px; -webkit-text-stroke-width: 0px; white-space: nowrap; background-color: rgb(251, 251, 251); text-decoration-thickness: initial; text-decoration-style: initial; text-decoration-color: initial; display: inline !important; float: none;&quot;&gt;Es importante registrar la fecha de inicio y final de la reserva, el precio del alquiler de cada uno de los coches, los litros de gasolina en el deposito&lt;/span&gt;&lt;br style=&quot;forced-color-adjust: none; padding: 0px; margin: 0px; color: rgb(0, 0, 0); font-family: Helvetica; font-size: 12px; font-style: normal; font-variant-ligatures: normal; font-variant-caps: normal; font-weight: 400; letter-spacing: normal; orphans: 2; text-align: left; text-indent: 0px; text-transform: none; widows: 2; word-spacing: 0px; -webkit-text-stroke-width: 0px; white-space: nowrap; background-color: rgb(251, 251, 251); text-decoration-thickness: initial; text-decoration-style: initial; text-decoration-color: initial;&quot;&gt;&lt;span style=&quot;color: rgb(0, 0, 0); font-family: Helvetica; font-size: 12px; font-style: normal; font-variant-ligatures: normal; font-variant-caps: normal; font-weight: 400; letter-spacing: normal; orphans: 2; text-align: left; text-indent: 0px; text-transform: none; widows: 2; word-spacing: 0px; -webkit-text-stroke-width: 0px; white-space: nowrap; background-color: rgb(251, 251, 251); text-decoration-thickness: initial; text-decoration-style: initial; text-decoration-color: initial; display: inline !important; float: none;&quot;&gt;&amp;nbsp;en el momento de realizar la reserva, el precio total de la reserva y un indicador de si el coche o los coches han sido entregados.&lt;/span&gt;" style="text;whiteSpace=wrap;html=1;verticalAlign=top;" parent="1" vertex="1">
          <mxGeometry x="878.13" y="1156" width="560" height="50" as="geometry" />
        </mxCell>
        <mxCell id="h5iw6vHmCiw72O9xtH7j-119" value="&lt;span style=&quot;color: rgb(0, 0, 0); font-family: Helvetica; font-size: 12px; font-style: normal; font-variant-ligatures: normal; font-variant-caps: normal; font-weight: 400; letter-spacing: normal; orphans: 2; text-align: left; text-indent: 0px; text-transform: none; widows: 2; word-spacing: 0px; -webkit-text-stroke-width: 0px; white-space: nowrap; background-color: rgb(251, 251, 251); text-decoration-thickness: initial; text-decoration-style: initial; text-decoration-color: initial; display: inline !important; float: none;&quot;&gt;No se mantienen los datos de reservas anteriores.&lt;/span&gt;&lt;br style=&quot;forced-color-adjust: none; padding: 0px; margin: 0px; color: rgb(0, 0, 0); font-family: Helvetica; font-size: 12px; font-style: normal; font-variant-ligatures: normal; font-variant-caps: normal; font-weight: 400; letter-spacing: normal; orphans: 2; text-align: left; text-indent: 0px; text-transform: none; widows: 2; word-spacing: 0px; -webkit-text-stroke-width: 0px; white-space: nowrap; background-color: rgb(251, 251, 251); text-decoration-thickness: initial; text-decoration-style: initial; text-decoration-color: initial;&quot;&gt;" style="text;whiteSpace=wrap;html=1;" parent="1" vertex="1">
          <mxGeometry x="880.63" y="1196" width="300" height="40" as="geometry" />
        </mxCell>
        <mxCell id="h5iw6vHmCiw72O9xtH7j-120" value="Cliente" style="whiteSpace=wrap;html=1;align=center;" parent="1" vertex="1">
          <mxGeometry x="1007.5000000000001" y="636" width="100" height="40" as="geometry" />
        </mxCell>
        <mxCell id="h5iw6vHmCiw72O9xtH7j-121" value="Reserva" style="whiteSpace=wrap;html=1;align=center;" parent="1" vertex="1">
          <mxGeometry x="1237.5" y="516" width="100" height="40" as="geometry" />
        </mxCell>
        <mxCell id="h5iw6vHmCiw72O9xtH7j-136" style="edgeStyle=orthogonalEdgeStyle;rounded=0;orthogonalLoop=1;jettySize=auto;html=1;entryX=0.5;entryY=0;entryDx=0;entryDy=0;" parent="1" source="h5iw6vHmCiw72O9xtH7j-132" target="h5iw6vHmCiw72O9xtH7j-120" edge="1">
          <mxGeometry relative="1" as="geometry" />
        </mxCell>
        <mxCell id="h5iw6vHmCiw72O9xtH7j-137" style="edgeStyle=orthogonalEdgeStyle;rounded=0;orthogonalLoop=1;jettySize=auto;html=1;entryX=0;entryY=0.5;entryDx=0;entryDy=0;" parent="1" source="h5iw6vHmCiw72O9xtH7j-132" target="h5iw6vHmCiw72O9xtH7j-121" edge="1">
          <mxGeometry relative="1" as="geometry" />
        </mxCell>
        <mxCell id="h5iw6vHmCiw72O9xtH7j-132" value="realiza" style="shape=rhombus;perimeter=rhombusPerimeter;whiteSpace=wrap;html=1;align=center;" parent="1" vertex="1">
          <mxGeometry x="1017.5000000000001" y="516" width="80" height="40" as="geometry" />
        </mxCell>
        <mxCell id="h5iw6vHmCiw72O9xtH7j-134" value="(0,N)" style="text;html=1;align=center;verticalAlign=middle;resizable=0;points=[];autosize=1;strokeColor=none;fillColor=none;" parent="1" vertex="1">
          <mxGeometry x="1171.25" y="501.5" width="50" height="30" as="geometry" />
        </mxCell>
        <mxCell id="h5iw6vHmCiw72O9xtH7j-153" style="edgeStyle=orthogonalEdgeStyle;rounded=0;orthogonalLoop=1;jettySize=auto;html=1;entryX=0;entryY=0.5;entryDx=0;entryDy=0;" parent="1" source="h5iw6vHmCiw72O9xtH7j-144" target="h5iw6vHmCiw72O9xtH7j-47" edge="1">
          <mxGeometry relative="1" as="geometry" />
        </mxCell>
        <mxCell id="h5iw6vHmCiw72O9xtH7j-144" value="realiza" style="shape=rhombus;perimeter=rhombusPerimeter;whiteSpace=wrap;html=1;align=center;" parent="1" vertex="1">
          <mxGeometry x="1013.7600000000003" y="1356" width="80" height="40" as="geometry" />
        </mxCell>
        <mxCell id="h5iw6vHmCiw72O9xtH7j-146" value="(1,1)" style="text;html=1;align=center;verticalAlign=middle;resizable=0;points=[];autosize=1;strokeColor=none;fillColor=none;" parent="1" vertex="1">
          <mxGeometry x="1057.5" y="1459.5" width="50" height="30" as="geometry" />
        </mxCell>
        <mxCell id="h5iw6vHmCiw72O9xtH7j-147" value="(0,N)" style="text;html=1;align=center;verticalAlign=middle;resizable=0;points=[];autosize=1;strokeColor=none;fillColor=none;" parent="1" vertex="1">
          <mxGeometry x="1168.76" y="1341.5" width="50" height="30" as="geometry" />
        </mxCell>
        <mxCell id="h5iw6vHmCiw72O9xtH7j-148" value="1:N" style="text;html=1;align=center;verticalAlign=middle;resizable=0;points=[];autosize=1;strokeColor=none;fillColor=none;" parent="1" vertex="1">
          <mxGeometry x="1000" y="1341.5" width="40" height="30" as="geometry" />
        </mxCell>
        <mxCell id="h5iw6vHmCiw72O9xtH7j-149" value="Cliente" style="whiteSpace=wrap;html=1;align=center;" parent="1" vertex="1">
          <mxGeometry x="1013.7600000000003" y="1496" width="100" height="40" as="geometry" />
        </mxCell>
        <mxCell id="h5iw6vHmCiw72O9xtH7j-152" style="edgeStyle=orthogonalEdgeStyle;rounded=0;orthogonalLoop=1;jettySize=auto;html=1;entryX=0.402;entryY=-0.075;entryDx=0;entryDy=0;entryPerimeter=0;" parent="1" source="h5iw6vHmCiw72O9xtH7j-144" target="h5iw6vHmCiw72O9xtH7j-149" edge="1">
          <mxGeometry relative="1" as="geometry" />
        </mxCell>
        <mxCell id="h5iw6vHmCiw72O9xtH7j-154" value="&lt;span style=&quot;color: rgb(0, 0, 0); font-family: Helvetica; font-size: 12px; font-style: normal; font-variant-ligatures: normal; font-variant-caps: normal; font-weight: 400; letter-spacing: normal; orphans: 2; text-align: left; text-indent: 0px; text-transform: none; widows: 2; word-spacing: 0px; -webkit-text-stroke-width: 0px; white-space: nowrap; background-color: rgb(251, 251, 251); text-decoration-thickness: initial; text-decoration-style: initial; text-decoration-color: initial; display: inline !important; float: none;&quot;&gt;Todo coche tiene siempre asignado un determinado garaje que no puede cambiar. De cada coche se requiere la matricula, el modelo,&amp;nbsp;&lt;/span&gt;&lt;br style=&quot;forced-color-adjust: none; padding: 0px; margin: 0px; color: rgb(0, 0, 0); font-family: Helvetica; font-size: 12px; font-style: normal; font-variant-ligatures: normal; font-variant-caps: normal; font-weight: 400; letter-spacing: normal; orphans: 2; text-align: left; text-indent: 0px; text-transform: none; widows: 2; word-spacing: 0px; -webkit-text-stroke-width: 0px; white-space: nowrap; background-color: rgb(251, 251, 251); text-decoration-thickness: initial; text-decoration-style: initial; text-decoration-color: initial;&quot;&gt;&lt;span style=&quot;color: rgb(0, 0, 0); font-family: Helvetica; font-size: 12px; font-style: normal; font-variant-ligatures: normal; font-variant-caps: normal; font-weight: 400; letter-spacing: normal; orphans: 2; text-align: left; text-indent: 0px; text-transform: none; widows: 2; word-spacing: 0px; -webkit-text-stroke-width: 0px; white-space: nowrap; background-color: rgb(251, 251, 251); text-decoration-thickness: initial; text-decoration-style: initial; text-decoration-color: initial; display: inline !important; float: none;&quot;&gt;el color y la marca.&lt;/span&gt;" style="text;whiteSpace=wrap;html=1;" parent="1" vertex="1">
          <mxGeometry x="880.63" y="1716" width="560" height="50" as="geometry" />
        </mxCell>
        <mxCell id="h5iw6vHmCiw72O9xtH7j-155" value="&lt;span style=&quot;color: rgb(0, 0, 0); font-family: Helvetica; font-size: 12px; font-style: normal; font-variant-ligatures: normal; font-variant-caps: normal; font-weight: 400; letter-spacing: normal; orphans: 2; text-align: left; text-indent: 0px; text-transform: none; widows: 2; word-spacing: 0px; -webkit-text-stroke-width: 0px; white-space: nowrap; background-color: rgb(251, 251, 251); text-decoration-thickness: initial; text-decoration-style: initial; text-decoration-color: initial; display: inline !important; float: none;&quot;&gt;Cada reserva se realiza en una determinada agencia.&lt;/span&gt;" style="text;whiteSpace=wrap;html=1;" parent="1" vertex="1">
          <mxGeometry x="878.13" y="2036" width="320" height="40" as="geometry" />
        </mxCell>
        <mxCell id="h5iw6vHmCiw72O9xtH7j-156" value="Coche" style="whiteSpace=wrap;html=1;align=center;" parent="1" vertex="1">
          <mxGeometry x="1036.25" y="1854" width="100" height="40" as="geometry" />
        </mxCell>
        <mxCell id="h5iw6vHmCiw72O9xtH7j-157" value="Reserva" style="whiteSpace=wrap;html=1;align=center;" parent="1" vertex="1">
          <mxGeometry x="1040" y="2146" width="100" height="40" as="geometry" />
        </mxCell>
        <mxCell id="h5iw6vHmCiw72O9xtH7j-158" value="Garaje" style="whiteSpace=wrap;html=1;align=center;" parent="1" vertex="1">
          <mxGeometry x="1421.2500000000002" y="1854" width="100" height="40" as="geometry" />
        </mxCell>
        <mxCell id="h5iw6vHmCiw72O9xtH7j-159" value="Agencia" style="whiteSpace=wrap;html=1;align=center;" parent="1" vertex="1">
          <mxGeometry x="1425" y="2146" width="100" height="40" as="geometry" />
        </mxCell>
        <mxCell id="h5iw6vHmCiw72O9xtH7j-168" value="modelo" style="ellipse;whiteSpace=wrap;html=1;align=center;" parent="1" vertex="1">
          <mxGeometry x="1051.25" y="1924" width="55" height="40" as="geometry" />
        </mxCell>
        <mxCell id="h5iw6vHmCiw72O9xtH7j-169" value="color" style="ellipse;whiteSpace=wrap;html=1;align=center;" parent="1" vertex="1">
          <mxGeometry x="1126.2500000000002" y="1924" width="55" height="40" as="geometry" />
        </mxCell>
        <mxCell id="h5iw6vHmCiw72O9xtH7j-170" value="" style="edgeStyle=orthogonalEdgeStyle;rounded=0;orthogonalLoop=1;jettySize=auto;html=1;endArrow=none;endFill=0;" parent="1" edge="1">
          <mxGeometry relative="1" as="geometry">
            <mxPoint x="1113.75" y="1964" as="sourcePoint" />
            <mxPoint x="1114.25" y="1894" as="targetPoint" />
            <Array as="points">
              <mxPoint x="1114.25" y="1929" />
              <mxPoint x="1114.25" y="1929" />
              <mxPoint x="1114.25" y="1894" />
            </Array>
          </mxGeometry>
        </mxCell>
        <mxCell id="h5iw6vHmCiw72O9xtH7j-171" value="marca" style="ellipse;whiteSpace=wrap;html=1;align=center;" parent="1" vertex="1">
          <mxGeometry x="1086.25" y="1964" width="55" height="40" as="geometry" />
        </mxCell>
        <mxCell id="h5iw6vHmCiw72O9xtH7j-172" style="edgeStyle=orthogonalEdgeStyle;rounded=0;orthogonalLoop=1;jettySize=auto;html=1;entryX=0;entryY=0.5;entryDx=0;entryDy=0;endArrow=none;endFill=0;" parent="1" source="h5iw6vHmCiw72O9xtH7j-173" target="h5iw6vHmCiw72O9xtH7j-156" edge="1">
          <mxGeometry relative="1" as="geometry" />
        </mxCell>
        <mxCell id="h5iw6vHmCiw72O9xtH7j-173" value="matricula" style="ellipse;whiteSpace=wrap;html=1;align=center;fontStyle=4;" parent="1" vertex="1">
          <mxGeometry x="970" y="1924" width="67.5" height="40" as="geometry" />
        </mxCell>
        <mxCell id="h5iw6vHmCiw72O9xtH7j-174" style="edgeStyle=orthogonalEdgeStyle;rounded=0;orthogonalLoop=1;jettySize=auto;html=1;entryX=0.925;entryY=1.013;entryDx=0;entryDy=0;entryPerimeter=0;endArrow=none;endFill=0;" parent="1" source="h5iw6vHmCiw72O9xtH7j-169" target="h5iw6vHmCiw72O9xtH7j-156" edge="1">
          <mxGeometry relative="1" as="geometry" />
        </mxCell>
        <mxCell id="h5iw6vHmCiw72O9xtH7j-175" style="edgeStyle=orthogonalEdgeStyle;rounded=0;orthogonalLoop=1;jettySize=auto;html=1;entryX=0.425;entryY=0.987;entryDx=0;entryDy=0;entryPerimeter=0;endArrow=none;endFill=0;" parent="1" source="h5iw6vHmCiw72O9xtH7j-168" target="h5iw6vHmCiw72O9xtH7j-156" edge="1">
          <mxGeometry relative="1" as="geometry" />
        </mxCell>
        <mxCell id="h5iw6vHmCiw72O9xtH7j-176" style="edgeStyle=orthogonalEdgeStyle;rounded=0;orthogonalLoop=1;jettySize=auto;html=1;entryX=1;entryY=0.5;entryDx=0;entryDy=0;" parent="1" source="h5iw6vHmCiw72O9xtH7j-178" target="h5iw6vHmCiw72O9xtH7j-157" edge="1">
          <mxGeometry relative="1" as="geometry" />
        </mxCell>
        <mxCell id="h5iw6vHmCiw72O9xtH7j-177" style="edgeStyle=orthogonalEdgeStyle;rounded=0;orthogonalLoop=1;jettySize=auto;html=1;entryX=0;entryY=0.5;entryDx=0;entryDy=0;" parent="1" source="h5iw6vHmCiw72O9xtH7j-178" target="h5iw6vHmCiw72O9xtH7j-159" edge="1">
          <mxGeometry relative="1" as="geometry" />
        </mxCell>
        <mxCell id="h5iw6vHmCiw72O9xtH7j-178" value="gestiona" style="shape=rhombus;perimeter=rhombusPerimeter;whiteSpace=wrap;html=1;align=center;" parent="1" vertex="1">
          <mxGeometry x="1245" y="2146" width="80" height="40" as="geometry" />
        </mxCell>
        <mxCell id="h5iw6vHmCiw72O9xtH7j-179" style="edgeStyle=orthogonalEdgeStyle;rounded=0;orthogonalLoop=1;jettySize=auto;html=1;entryX=1;entryY=0.5;entryDx=0;entryDy=0;" parent="1" source="h5iw6vHmCiw72O9xtH7j-181" target="h5iw6vHmCiw72O9xtH7j-156" edge="1">
          <mxGeometry relative="1" as="geometry" />
        </mxCell>
        <mxCell id="h5iw6vHmCiw72O9xtH7j-180" style="edgeStyle=orthogonalEdgeStyle;rounded=0;orthogonalLoop=1;jettySize=auto;html=1;entryX=0;entryY=0.5;entryDx=0;entryDy=0;" parent="1" source="h5iw6vHmCiw72O9xtH7j-181" target="h5iw6vHmCiw72O9xtH7j-158" edge="1">
          <mxGeometry relative="1" as="geometry" />
        </mxCell>
        <mxCell id="h5iw6vHmCiw72O9xtH7j-181" value="asigna" style="shape=rhombus;perimeter=rhombusPerimeter;whiteSpace=wrap;html=1;align=center;" parent="1" vertex="1">
          <mxGeometry x="1241.2500000000002" y="1859" width="70" height="30" as="geometry" />
        </mxCell>
        <mxCell id="h5iw6vHmCiw72O9xtH7j-184" value="(1,n)" style="text;html=1;align=center;verticalAlign=middle;resizable=0;points=[];autosize=1;strokeColor=none;fillColor=none;" parent="1" vertex="1">
          <mxGeometry x="1101.25" y="1824" width="50" height="30" as="geometry" />
        </mxCell>
        <mxCell id="h5iw6vHmCiw72O9xtH7j-187" value="(0,n)" style="text;html=1;align=center;verticalAlign=middle;resizable=0;points=[];autosize=1;strokeColor=none;fillColor=none;" parent="1" vertex="1">
          <mxGeometry x="1155" y="2166" width="50" height="30" as="geometry" />
        </mxCell>
        <mxCell id="h5iw6vHmCiw72O9xtH7j-188" value="(1,1)" style="text;html=1;align=center;verticalAlign=middle;resizable=0;points=[];autosize=1;strokeColor=none;fillColor=none;" parent="1" vertex="1">
          <mxGeometry x="1375" y="2166" width="50" height="30" as="geometry" />
        </mxCell>
        <mxCell id="h5iw6vHmCiw72O9xtH7j-189" value="1:N" style="text;html=1;align=center;verticalAlign=middle;resizable=0;points=[];autosize=1;strokeColor=none;fillColor=none;" parent="1" vertex="1">
          <mxGeometry x="1265" y="2114" width="40" height="30" as="geometry" />
        </mxCell>
        <mxCell id="h5iw6vHmCiw72O9xtH7j-190" value="(1,1)" style="text;html=1;align=center;verticalAlign=middle;resizable=0;points=[];autosize=1;strokeColor=none;fillColor=none;" parent="1" vertex="1">
          <mxGeometry x="1371.2500000000002" y="1874" width="50" height="30" as="geometry" />
        </mxCell>
        <mxCell id="h5iw6vHmCiw72O9xtH7j-191" value="(1,n)" style="text;html=1;align=center;verticalAlign=middle;resizable=0;points=[];autosize=1;strokeColor=none;fillColor=none;" parent="1" vertex="1">
          <mxGeometry x="1141.2500000000002" y="1874" width="50" height="30" as="geometry" />
        </mxCell>
        <mxCell id="h5iw6vHmCiw72O9xtH7j-192" value="1:N" style="text;html=1;align=center;verticalAlign=middle;resizable=0;points=[];autosize=1;strokeColor=none;fillColor=none;" parent="1" vertex="1">
          <mxGeometry x="1256.2500000000002" y="1824" width="40" height="30" as="geometry" />
        </mxCell>
        <mxCell id="h5iw6vHmCiw72O9xtH7j-195" value="codigo" style="ellipse;whiteSpace=wrap;html=1;align=center;fontStyle=4;" parent="1" vertex="1">
          <mxGeometry x="1415" y="2086" width="50" height="40" as="geometry" />
        </mxCell>
        <mxCell id="h5iw6vHmCiw72O9xtH7j-196" value="nombre" style="ellipse;whiteSpace=wrap;html=1;align=center;" parent="1" vertex="1">
          <mxGeometry x="1485" y="2086" width="50" height="40" as="geometry" />
        </mxCell>
        <mxCell id="h5iw6vHmCiw72O9xtH7j-197" style="edgeStyle=orthogonalEdgeStyle;rounded=0;orthogonalLoop=1;jettySize=auto;html=1;entryX=0.85;entryY=0;entryDx=0;entryDy=0;entryPerimeter=0;endArrow=none;endFill=0;" parent="1" source="h5iw6vHmCiw72O9xtH7j-196" target="h5iw6vHmCiw72O9xtH7j-159" edge="1">
          <mxGeometry relative="1" as="geometry" />
        </mxCell>
        <mxCell id="h5iw6vHmCiw72O9xtH7j-198" style="edgeStyle=orthogonalEdgeStyle;rounded=0;orthogonalLoop=1;jettySize=auto;html=1;entryX=0.157;entryY=0.005;entryDx=0;entryDy=0;entryPerimeter=0;endArrow=none;endFill=0;" parent="1" source="h5iw6vHmCiw72O9xtH7j-195" target="h5iw6vHmCiw72O9xtH7j-159" edge="1">
          <mxGeometry relative="1" as="geometry" />
        </mxCell>
        <mxCell id="h5iw6vHmCiw72O9xtH7j-199" style="edgeStyle=orthogonalEdgeStyle;rounded=0;orthogonalLoop=1;jettySize=auto;html=1;entryX=0.25;entryY=0;entryDx=0;entryDy=0;endArrow=none;endFill=0;" parent="1" source="h5iw6vHmCiw72O9xtH7j-200" target="h5iw6vHmCiw72O9xtH7j-158" edge="1">
          <mxGeometry relative="1" as="geometry" />
        </mxCell>
        <mxCell id="h5iw6vHmCiw72O9xtH7j-200" value="codigo" style="ellipse;whiteSpace=wrap;html=1;align=center;fontStyle=4;" parent="1" vertex="1">
          <mxGeometry x="1421.2500000000002" y="1794" width="50" height="40" as="geometry" />
        </mxCell>
        <mxCell id="h5iw6vHmCiw72O9xtH7j-206" style="edgeStyle=orthogonalEdgeStyle;rounded=0;orthogonalLoop=1;jettySize=auto;html=1;entryX=1;entryY=0;entryDx=0;entryDy=0;endArrow=none;endFill=0;" parent="1" source="h5iw6vHmCiw72O9xtH7j-205" target="h5iw6vHmCiw72O9xtH7j-158" edge="1">
          <mxGeometry relative="1" as="geometry" />
        </mxCell>
        <mxCell id="h5iw6vHmCiw72O9xtH7j-205" value="plaza" style="ellipse;whiteSpace=wrap;html=1;align=center;" parent="1" vertex="1">
          <mxGeometry x="1490.0000000000002" y="1794" width="55" height="40" as="geometry" />
        </mxCell>
        <mxCell id="h5iw6vHmCiw72O9xtH7j-207" style="edgeStyle=orthogonalEdgeStyle;rounded=0;orthogonalLoop=1;jettySize=auto;html=1;exitX=1;exitY=0.5;exitDx=0;exitDy=0;entryX=0.5;entryY=0;entryDx=0;entryDy=0;endArrow=none;endFill=0;" parent="1" source="h5iw6vHmCiw72O9xtH7j-208" target="h5iw6vHmCiw72O9xtH7j-221" edge="1">
          <mxGeometry relative="1" as="geometry" />
        </mxCell>
        <mxCell id="h5iw6vHmCiw72O9xtH7j-208" value="Cliente" style="whiteSpace=wrap;html=1;align=center;" parent="1" vertex="1">
          <mxGeometry x="957.1899999999999" y="2576" width="100" height="40" as="geometry" />
        </mxCell>
        <mxCell id="h5iw6vHmCiw72O9xtH7j-209" value="Coche" style="whiteSpace=wrap;html=1;align=center;" parent="1" vertex="1">
          <mxGeometry x="1193.13" y="2716" width="100" height="40" as="geometry" />
        </mxCell>
        <mxCell id="h5iw6vHmCiw72O9xtH7j-210" value="Reserva" style="whiteSpace=wrap;html=1;align=center;" parent="1" vertex="1">
          <mxGeometry x="1193.13" y="2436" width="100" height="40" as="geometry" />
        </mxCell>
        <mxCell id="h5iw6vHmCiw72O9xtH7j-211" value="Garaje" style="whiteSpace=wrap;html=1;align=center;" parent="1" vertex="1">
          <mxGeometry x="1578.13" y="2716" width="100" height="40" as="geometry" />
        </mxCell>
        <mxCell id="h5iw6vHmCiw72O9xtH7j-212" value="Agencia" style="whiteSpace=wrap;html=1;align=center;" parent="1" vertex="1">
          <mxGeometry x="1578.13" y="2436" width="100" height="40" as="geometry" />
        </mxCell>
        <mxCell id="h5iw6vHmCiw72O9xtH7j-214" value="nombre" style="ellipse;whiteSpace=wrap;html=1;align=center;" parent="1" vertex="1">
          <mxGeometry x="967.1899999999999" y="2646" width="60" height="40" as="geometry" />
        </mxCell>
        <mxCell id="h5iw6vHmCiw72O9xtH7j-215" style="edgeStyle=orthogonalEdgeStyle;rounded=0;orthogonalLoop=1;jettySize=auto;html=1;entryX=0.75;entryY=1;entryDx=0;entryDy=0;endArrow=none;endFill=0;" parent="1" source="h5iw6vHmCiw72O9xtH7j-216" target="h5iw6vHmCiw72O9xtH7j-208" edge="1">
          <mxGeometry relative="1" as="geometry" />
        </mxCell>
        <mxCell id="h5iw6vHmCiw72O9xtH7j-216" value="direccion" style="ellipse;whiteSpace=wrap;html=1;align=center;" parent="1" vertex="1">
          <mxGeometry x="1007.19" y="2706" width="70" height="40" as="geometry" />
        </mxCell>
        <mxCell id="h5iw6vHmCiw72O9xtH7j-217" value="telefono" style="ellipse;whiteSpace=wrap;html=1;align=center;" parent="1" vertex="1">
          <mxGeometry x="927.1899999999999" y="2706" width="70" height="40" as="geometry" />
        </mxCell>
        <mxCell id="h5iw6vHmCiw72O9xtH7j-219" style="edgeStyle=orthogonalEdgeStyle;rounded=0;orthogonalLoop=1;jettySize=auto;html=1;entryX=0.4;entryY=1;entryDx=0;entryDy=0;entryPerimeter=0;endArrow=none;endFill=0;" parent="1" source="h5iw6vHmCiw72O9xtH7j-214" target="h5iw6vHmCiw72O9xtH7j-208" edge="1">
          <mxGeometry relative="1" as="geometry" />
        </mxCell>
        <mxCell id="h5iw6vHmCiw72O9xtH7j-220" style="edgeStyle=orthogonalEdgeStyle;rounded=0;orthogonalLoop=1;jettySize=auto;html=1;entryX=0.05;entryY=0.993;entryDx=0;entryDy=0;entryPerimeter=0;endArrow=none;endFill=0;" parent="1" source="h5iw6vHmCiw72O9xtH7j-217" target="h5iw6vHmCiw72O9xtH7j-208" edge="1">
          <mxGeometry relative="1" as="geometry" />
        </mxCell>
        <mxCell id="h5iw6vHmCiw72O9xtH7j-221" value="avala" style="shape=rhombus;perimeter=rhombusPerimeter;whiteSpace=wrap;html=1;align=center;" parent="1" vertex="1">
          <mxGeometry x="1092.19" y="2656" width="80" height="40" as="geometry" />
        </mxCell>
        <mxCell id="h5iw6vHmCiw72O9xtH7j-222" style="edgeStyle=orthogonalEdgeStyle;rounded=0;orthogonalLoop=1;jettySize=auto;html=1;entryX=0.905;entryY=1.038;entryDx=0;entryDy=0;entryPerimeter=0;" parent="1" source="h5iw6vHmCiw72O9xtH7j-221" target="h5iw6vHmCiw72O9xtH7j-208" edge="1">
          <mxGeometry relative="1" as="geometry" />
        </mxCell>
        <mxCell id="h5iw6vHmCiw72O9xtH7j-223" value="(0,n)" style="text;html=1;align=center;verticalAlign=middle;resizable=0;points=[];autosize=1;strokeColor=none;fillColor=none;" parent="1" vertex="1">
          <mxGeometry x="1057.19" y="2646" width="50" height="30" as="geometry" />
        </mxCell>
        <mxCell id="h5iw6vHmCiw72O9xtH7j-224" value="(0,1)" style="text;html=1;align=center;verticalAlign=middle;resizable=0;points=[];autosize=1;strokeColor=none;fillColor=none;" parent="1" vertex="1">
          <mxGeometry x="1082.19" y="2596" width="50" height="30" as="geometry" />
        </mxCell>
        <mxCell id="h5iw6vHmCiw72O9xtH7j-225" value="1:N" style="text;html=1;align=center;verticalAlign=middle;resizable=0;points=[];autosize=1;strokeColor=none;fillColor=none;" parent="1" vertex="1">
          <mxGeometry x="1147.19" y="2644" width="40" height="30" as="geometry" />
        </mxCell>
        <mxCell id="h5iw6vHmCiw72O9xtH7j-226" style="edgeStyle=orthogonalEdgeStyle;rounded=0;orthogonalLoop=1;jettySize=auto;html=1;entryX=0;entryY=0;entryDx=0;entryDy=0;endArrow=none;endFill=0;" parent="1" source="h5iw6vHmCiw72O9xtH7j-227" target="h5iw6vHmCiw72O9xtH7j-210" edge="1">
          <mxGeometry relative="1" as="geometry" />
        </mxCell>
        <mxCell id="h5iw6vHmCiw72O9xtH7j-227" value="codigo" style="ellipse;whiteSpace=wrap;html=1;align=center;fontStyle=4;" parent="1" vertex="1">
          <mxGeometry x="1153.13" y="2376" width="50" height="40" as="geometry" />
        </mxCell>
        <mxCell id="h5iw6vHmCiw72O9xtH7j-228" style="edgeStyle=orthogonalEdgeStyle;rounded=0;orthogonalLoop=1;jettySize=auto;html=1;entryX=0.5;entryY=0;entryDx=0;entryDy=0;endArrow=none;endFill=0;" parent="1" source="h5iw6vHmCiw72O9xtH7j-229" target="h5iw6vHmCiw72O9xtH7j-210" edge="1">
          <mxGeometry relative="1" as="geometry" />
        </mxCell>
        <mxCell id="h5iw6vHmCiw72O9xtH7j-229" value="litros" style="ellipse;whiteSpace=wrap;html=1;align=center;" parent="1" vertex="1">
          <mxGeometry x="1215.63" y="2376" width="55" height="40" as="geometry" />
        </mxCell>
        <mxCell id="h5iw6vHmCiw72O9xtH7j-230" value="fecha_inicio" style="ellipse;whiteSpace=wrap;html=1;align=center;" parent="1" vertex="1">
          <mxGeometry x="1168.13" y="2326" width="85" height="40" as="geometry" />
        </mxCell>
        <mxCell id="h5iw6vHmCiw72O9xtH7j-231" value="fecha_fin" style="ellipse;whiteSpace=wrap;html=1;align=center;" parent="1" vertex="1">
          <mxGeometry x="1270.63" y="2316" width="85" height="40" as="geometry" />
        </mxCell>
        <mxCell id="h5iw6vHmCiw72O9xtH7j-232" style="edgeStyle=orthogonalEdgeStyle;rounded=0;orthogonalLoop=1;jettySize=auto;html=1;entryX=0;entryY=0.5;entryDx=0;entryDy=0;" parent="1" source="h5iw6vHmCiw72O9xtH7j-233" target="h5iw6vHmCiw72O9xtH7j-210" edge="1">
          <mxGeometry relative="1" as="geometry" />
        </mxCell>
        <mxCell id="h5iw6vHmCiw72O9xtH7j-233" value="realiza" style="shape=rhombus;perimeter=rhombusPerimeter;whiteSpace=wrap;html=1;align=center;" parent="1" vertex="1">
          <mxGeometry x="1002.19" y="2436" width="80" height="40" as="geometry" />
        </mxCell>
        <mxCell id="h5iw6vHmCiw72O9xtH7j-234" style="edgeStyle=orthogonalEdgeStyle;rounded=0;orthogonalLoop=1;jettySize=auto;html=1;exitX=0.5;exitY=1;exitDx=0;exitDy=0;entryX=0.855;entryY=-0.037;entryDx=0;entryDy=0;entryPerimeter=0;" parent="1" source="h5iw6vHmCiw72O9xtH7j-233" target="h5iw6vHmCiw72O9xtH7j-208" edge="1">
          <mxGeometry relative="1" as="geometry" />
        </mxCell>
        <mxCell id="h5iw6vHmCiw72O9xtH7j-235" style="edgeStyle=orthogonalEdgeStyle;rounded=0;orthogonalLoop=1;jettySize=auto;html=1;entryX=0.5;entryY=1;entryDx=0;entryDy=0;" parent="1" source="h5iw6vHmCiw72O9xtH7j-237" target="h5iw6vHmCiw72O9xtH7j-210" edge="1">
          <mxGeometry relative="1" as="geometry" />
        </mxCell>
        <mxCell id="h5iw6vHmCiw72O9xtH7j-236" style="edgeStyle=orthogonalEdgeStyle;rounded=0;orthogonalLoop=1;jettySize=auto;html=1;entryX=0.5;entryY=0;entryDx=0;entryDy=0;" parent="1" source="h5iw6vHmCiw72O9xtH7j-237" target="h5iw6vHmCiw72O9xtH7j-209" edge="1">
          <mxGeometry relative="1" as="geometry" />
        </mxCell>
        <mxCell id="h5iw6vHmCiw72O9xtH7j-237" value="involucra" style="shape=rhombus;perimeter=rhombusPerimeter;whiteSpace=wrap;html=1;align=center;" parent="1" vertex="1">
          <mxGeometry x="1203.13" y="2576" width="80" height="40" as="geometry" />
        </mxCell>
        <mxCell id="h5iw6vHmCiw72O9xtH7j-238" value="modelo" style="ellipse;whiteSpace=wrap;html=1;align=center;" parent="1" vertex="1">
          <mxGeometry x="1208.13" y="2786" width="55" height="40" as="geometry" />
        </mxCell>
        <mxCell id="h5iw6vHmCiw72O9xtH7j-239" value="color" style="ellipse;whiteSpace=wrap;html=1;align=center;" parent="1" vertex="1">
          <mxGeometry x="1283.13" y="2786" width="55" height="40" as="geometry" />
        </mxCell>
        <mxCell id="h5iw6vHmCiw72O9xtH7j-240" value="" style="edgeStyle=orthogonalEdgeStyle;rounded=0;orthogonalLoop=1;jettySize=auto;html=1;endArrow=none;endFill=0;" parent="1" edge="1">
          <mxGeometry relative="1" as="geometry">
            <mxPoint x="1270.63" y="2826" as="sourcePoint" />
            <mxPoint x="1271.13" y="2756" as="targetPoint" />
            <Array as="points">
              <mxPoint x="1271.13" y="2791" />
              <mxPoint x="1271.13" y="2791" />
              <mxPoint x="1271.13" y="2756" />
            </Array>
          </mxGeometry>
        </mxCell>
        <mxCell id="h5iw6vHmCiw72O9xtH7j-241" value="marca" style="ellipse;whiteSpace=wrap;html=1;align=center;" parent="1" vertex="1">
          <mxGeometry x="1243.13" y="2826" width="55" height="40" as="geometry" />
        </mxCell>
        <mxCell id="h5iw6vHmCiw72O9xtH7j-242" style="edgeStyle=orthogonalEdgeStyle;rounded=0;orthogonalLoop=1;jettySize=auto;html=1;entryX=0;entryY=0.5;entryDx=0;entryDy=0;endArrow=none;endFill=0;" parent="1" source="h5iw6vHmCiw72O9xtH7j-243" target="h5iw6vHmCiw72O9xtH7j-209" edge="1">
          <mxGeometry relative="1" as="geometry" />
        </mxCell>
        <mxCell id="h5iw6vHmCiw72O9xtH7j-243" value="matricula" style="ellipse;whiteSpace=wrap;html=1;align=center;fontStyle=4;" parent="1" vertex="1">
          <mxGeometry x="1126.88" y="2786" width="67.5" height="40" as="geometry" />
        </mxCell>
        <mxCell id="h5iw6vHmCiw72O9xtH7j-244" style="edgeStyle=orthogonalEdgeStyle;rounded=0;orthogonalLoop=1;jettySize=auto;html=1;entryX=0.925;entryY=1.013;entryDx=0;entryDy=0;entryPerimeter=0;endArrow=none;endFill=0;" parent="1" source="h5iw6vHmCiw72O9xtH7j-239" target="h5iw6vHmCiw72O9xtH7j-209" edge="1">
          <mxGeometry relative="1" as="geometry" />
        </mxCell>
        <mxCell id="h5iw6vHmCiw72O9xtH7j-245" style="edgeStyle=orthogonalEdgeStyle;rounded=0;orthogonalLoop=1;jettySize=auto;html=1;entryX=0.425;entryY=0.987;entryDx=0;entryDy=0;entryPerimeter=0;endArrow=none;endFill=0;" parent="1" source="h5iw6vHmCiw72O9xtH7j-238" target="h5iw6vHmCiw72O9xtH7j-209" edge="1">
          <mxGeometry relative="1" as="geometry" />
        </mxCell>
        <mxCell id="h5iw6vHmCiw72O9xtH7j-246" style="edgeStyle=orthogonalEdgeStyle;rounded=0;orthogonalLoop=1;jettySize=auto;html=1;entryX=1;entryY=0.5;entryDx=0;entryDy=0;" parent="1" source="h5iw6vHmCiw72O9xtH7j-248" target="h5iw6vHmCiw72O9xtH7j-210" edge="1">
          <mxGeometry relative="1" as="geometry" />
        </mxCell>
        <mxCell id="h5iw6vHmCiw72O9xtH7j-247" style="edgeStyle=orthogonalEdgeStyle;rounded=0;orthogonalLoop=1;jettySize=auto;html=1;entryX=0;entryY=0.5;entryDx=0;entryDy=0;" parent="1" source="h5iw6vHmCiw72O9xtH7j-248" target="h5iw6vHmCiw72O9xtH7j-212" edge="1">
          <mxGeometry relative="1" as="geometry" />
        </mxCell>
        <mxCell id="h5iw6vHmCiw72O9xtH7j-248" value="gestiona" style="shape=rhombus;perimeter=rhombusPerimeter;whiteSpace=wrap;html=1;align=center;" parent="1" vertex="1">
          <mxGeometry x="1398.13" y="2436" width="80" height="40" as="geometry" />
        </mxCell>
        <mxCell id="h5iw6vHmCiw72O9xtH7j-249" style="edgeStyle=orthogonalEdgeStyle;rounded=0;orthogonalLoop=1;jettySize=auto;html=1;entryX=1;entryY=0.5;entryDx=0;entryDy=0;" parent="1" source="h5iw6vHmCiw72O9xtH7j-251" target="h5iw6vHmCiw72O9xtH7j-209" edge="1">
          <mxGeometry relative="1" as="geometry" />
        </mxCell>
        <mxCell id="h5iw6vHmCiw72O9xtH7j-250" style="edgeStyle=orthogonalEdgeStyle;rounded=0;orthogonalLoop=1;jettySize=auto;html=1;entryX=0;entryY=0.5;entryDx=0;entryDy=0;" parent="1" source="h5iw6vHmCiw72O9xtH7j-251" target="h5iw6vHmCiw72O9xtH7j-211" edge="1">
          <mxGeometry relative="1" as="geometry" />
        </mxCell>
        <mxCell id="h5iw6vHmCiw72O9xtH7j-251" value="asigna" style="shape=rhombus;perimeter=rhombusPerimeter;whiteSpace=wrap;html=1;align=center;" parent="1" vertex="1">
          <mxGeometry x="1398.13" y="2721" width="70" height="30" as="geometry" />
        </mxCell>
        <mxCell id="h5iw6vHmCiw72O9xtH7j-252" style="edgeStyle=orthogonalEdgeStyle;rounded=0;orthogonalLoop=1;jettySize=auto;html=1;exitX=0.5;exitY=1;exitDx=0;exitDy=0;entryX=0.175;entryY=0.006;entryDx=0;entryDy=0;entryPerimeter=0;endArrow=none;endFill=0;" parent="1" source="h5iw6vHmCiw72O9xtH7j-230" target="h5iw6vHmCiw72O9xtH7j-210" edge="1">
          <mxGeometry relative="1" as="geometry" />
        </mxCell>
        <mxCell id="h5iw6vHmCiw72O9xtH7j-253" style="edgeStyle=orthogonalEdgeStyle;rounded=0;orthogonalLoop=1;jettySize=auto;html=1;entryX=0.83;entryY=0.005;entryDx=0;entryDy=0;entryPerimeter=0;endArrow=none;endFill=0;" parent="1" source="h5iw6vHmCiw72O9xtH7j-231" target="h5iw6vHmCiw72O9xtH7j-210" edge="1">
          <mxGeometry relative="1" as="geometry">
            <Array as="points">
              <mxPoint x="1288.13" y="2396" />
              <mxPoint x="1277.13" y="2396" />
              <mxPoint x="1277.13" y="2436" />
            </Array>
          </mxGeometry>
        </mxCell>
        <mxCell id="h5iw6vHmCiw72O9xtH7j-255" value="(0,N)" style="text;html=1;align=center;verticalAlign=middle;resizable=0;points=[];autosize=1;strokeColor=none;fillColor=none;" parent="1" vertex="1">
          <mxGeometry x="1126.88" y="2426" width="50" height="30" as="geometry" />
        </mxCell>
        <mxCell id="h5iw6vHmCiw72O9xtH7j-256" value="1:N" style="text;html=1;align=center;verticalAlign=middle;resizable=0;points=[];autosize=1;strokeColor=none;fillColor=none;" parent="1" vertex="1">
          <mxGeometry x="987.19" y="2416" width="40" height="30" as="geometry" />
        </mxCell>
        <mxCell id="h5iw6vHmCiw72O9xtH7j-257" value="(1,n)" style="text;html=1;align=center;verticalAlign=middle;resizable=0;points=[];autosize=1;strokeColor=none;fillColor=none;" parent="1" vertex="1">
          <mxGeometry x="1258.13" y="2686" width="50" height="30" as="geometry" />
        </mxCell>
        <mxCell id="h5iw6vHmCiw72O9xtH7j-258" value="(1,1)" style="text;html=1;align=center;verticalAlign=middle;resizable=0;points=[];autosize=1;strokeColor=none;fillColor=none;" parent="1" vertex="1">
          <mxGeometry x="1258.13" y="2486" width="50" height="30" as="geometry" />
        </mxCell>
        <mxCell id="h5iw6vHmCiw72O9xtH7j-259" value="1:N" style="text;html=1;align=center;verticalAlign=middle;resizable=0;points=[];autosize=1;strokeColor=none;fillColor=none;" parent="1" vertex="1">
          <mxGeometry x="1268.13" y="2564" width="40" height="30" as="geometry" />
        </mxCell>
        <mxCell id="h5iw6vHmCiw72O9xtH7j-260" value="(0,n)" style="text;html=1;align=center;verticalAlign=middle;resizable=0;points=[];autosize=1;strokeColor=none;fillColor=none;" parent="1" vertex="1">
          <mxGeometry x="1308.13" y="2456" width="50" height="30" as="geometry" />
        </mxCell>
        <mxCell id="h5iw6vHmCiw72O9xtH7j-261" value="(1,1)" style="text;html=1;align=center;verticalAlign=middle;resizable=0;points=[];autosize=1;strokeColor=none;fillColor=none;" parent="1" vertex="1">
          <mxGeometry x="1528.13" y="2456" width="50" height="30" as="geometry" />
        </mxCell>
        <mxCell id="h5iw6vHmCiw72O9xtH7j-262" value="1:N" style="text;html=1;align=center;verticalAlign=middle;resizable=0;points=[];autosize=1;strokeColor=none;fillColor=none;" parent="1" vertex="1">
          <mxGeometry x="1418.13" y="2404" width="40" height="30" as="geometry" />
        </mxCell>
        <mxCell id="h5iw6vHmCiw72O9xtH7j-263" value="(1,1)" style="text;html=1;align=center;verticalAlign=middle;resizable=0;points=[];autosize=1;strokeColor=none;fillColor=none;" parent="1" vertex="1">
          <mxGeometry x="1528.13" y="2736" width="50" height="30" as="geometry" />
        </mxCell>
        <mxCell id="h5iw6vHmCiw72O9xtH7j-264" value="(1,n)" style="text;html=1;align=center;verticalAlign=middle;resizable=0;points=[];autosize=1;strokeColor=none;fillColor=none;" parent="1" vertex="1">
          <mxGeometry x="1298.13" y="2736" width="50" height="30" as="geometry" />
        </mxCell>
        <mxCell id="h5iw6vHmCiw72O9xtH7j-265" value="1:N" style="text;html=1;align=center;verticalAlign=middle;resizable=0;points=[];autosize=1;strokeColor=none;fillColor=none;" parent="1" vertex="1">
          <mxGeometry x="1413.13" y="2686" width="40" height="30" as="geometry" />
        </mxCell>
        <mxCell id="h5iw6vHmCiw72O9xtH7j-266" style="edgeStyle=orthogonalEdgeStyle;rounded=0;orthogonalLoop=1;jettySize=auto;html=1;entryX=1;entryY=0.5;entryDx=0;entryDy=0;endArrow=none;endFill=0;" parent="1" source="h5iw6vHmCiw72O9xtH7j-267" target="h5iw6vHmCiw72O9xtH7j-237" edge="1">
          <mxGeometry relative="1" as="geometry" />
        </mxCell>
        <mxCell id="h5iw6vHmCiw72O9xtH7j-267" value="precio_alquiler" style="ellipse;whiteSpace=wrap;html=1;align=center;" parent="1" vertex="1">
          <mxGeometry x="1318.13" y="2576" width="90" height="40" as="geometry" />
        </mxCell>
        <mxCell id="h5iw6vHmCiw72O9xtH7j-268" value="codigo" style="ellipse;whiteSpace=wrap;html=1;align=center;fontStyle=4;" parent="1" vertex="1">
          <mxGeometry x="1568.13" y="2376" width="50" height="40" as="geometry" />
        </mxCell>
        <mxCell id="h5iw6vHmCiw72O9xtH7j-269" value="nombre" style="ellipse;whiteSpace=wrap;html=1;align=center;" parent="1" vertex="1">
          <mxGeometry x="1638.13" y="2376" width="50" height="40" as="geometry" />
        </mxCell>
        <mxCell id="h5iw6vHmCiw72O9xtH7j-270" style="edgeStyle=orthogonalEdgeStyle;rounded=0;orthogonalLoop=1;jettySize=auto;html=1;entryX=0.85;entryY=0;entryDx=0;entryDy=0;entryPerimeter=0;endArrow=none;endFill=0;" parent="1" source="h5iw6vHmCiw72O9xtH7j-269" target="h5iw6vHmCiw72O9xtH7j-212" edge="1">
          <mxGeometry relative="1" as="geometry" />
        </mxCell>
        <mxCell id="h5iw6vHmCiw72O9xtH7j-271" style="edgeStyle=orthogonalEdgeStyle;rounded=0;orthogonalLoop=1;jettySize=auto;html=1;entryX=0.157;entryY=0.005;entryDx=0;entryDy=0;entryPerimeter=0;endArrow=none;endFill=0;" parent="1" source="h5iw6vHmCiw72O9xtH7j-268" target="h5iw6vHmCiw72O9xtH7j-212" edge="1">
          <mxGeometry relative="1" as="geometry" />
        </mxCell>
        <mxCell id="h5iw6vHmCiw72O9xtH7j-272" style="edgeStyle=orthogonalEdgeStyle;rounded=0;orthogonalLoop=1;jettySize=auto;html=1;entryX=0.25;entryY=0;entryDx=0;entryDy=0;endArrow=none;endFill=0;" parent="1" source="h5iw6vHmCiw72O9xtH7j-273" target="h5iw6vHmCiw72O9xtH7j-211" edge="1">
          <mxGeometry relative="1" as="geometry" />
        </mxCell>
        <mxCell id="h5iw6vHmCiw72O9xtH7j-273" value="codigo" style="ellipse;whiteSpace=wrap;html=1;align=center;fontStyle=4;" parent="1" vertex="1">
          <mxGeometry x="1578.13" y="2656" width="50" height="40" as="geometry" />
        </mxCell>
        <mxCell id="h5iw6vHmCiw72O9xtH7j-274" style="edgeStyle=orthogonalEdgeStyle;rounded=0;orthogonalLoop=1;jettySize=auto;html=1;entryX=1;entryY=0;entryDx=0;entryDy=0;endArrow=none;endFill=0;" parent="1" source="h5iw6vHmCiw72O9xtH7j-275" target="h5iw6vHmCiw72O9xtH7j-210" edge="1">
          <mxGeometry relative="1" as="geometry" />
        </mxCell>
        <mxCell id="h5iw6vHmCiw72O9xtH7j-275" value="precio_total" style="ellipse;whiteSpace=wrap;html=1;align=center;dashed=1;" parent="1" vertex="1">
          <mxGeometry x="1318.13" y="2364" width="90" height="40" as="geometry" />
        </mxCell>
        <mxCell id="h5iw6vHmCiw72O9xtH7j-276" value="indicador" style="ellipse;whiteSpace=wrap;html=1;align=center;" parent="1" vertex="1">
          <mxGeometry x="1111.88" y="2496" width="76.25" height="30" as="geometry" />
        </mxCell>
        <mxCell id="h5iw6vHmCiw72O9xtH7j-277" style="edgeStyle=orthogonalEdgeStyle;rounded=0;orthogonalLoop=1;jettySize=auto;html=1;entryX=0.143;entryY=1.044;entryDx=0;entryDy=0;entryPerimeter=0;endArrow=none;endFill=0;" parent="1" source="h5iw6vHmCiw72O9xtH7j-276" target="h5iw6vHmCiw72O9xtH7j-210" edge="1">
          <mxGeometry relative="1" as="geometry" />
        </mxCell>
        <mxCell id="h5iw6vHmCiw72O9xtH7j-279" style="edgeStyle=orthogonalEdgeStyle;rounded=0;orthogonalLoop=1;jettySize=auto;html=1;entryX=1;entryY=0;entryDx=0;entryDy=0;endArrow=none;endFill=0;" parent="1" source="h5iw6vHmCiw72O9xtH7j-278" target="h5iw6vHmCiw72O9xtH7j-211" edge="1">
          <mxGeometry relative="1" as="geometry" />
        </mxCell>
        <mxCell id="h5iw6vHmCiw72O9xtH7j-278" value="nombre" style="ellipse;whiteSpace=wrap;html=1;align=center;" parent="1" vertex="1">
          <mxGeometry x="1650" y="2656" width="50" height="40" as="geometry" />
        </mxCell>
        <mxCell id="h5iw6vHmCiw72O9xtH7j-285" style="edgeStyle=orthogonalEdgeStyle;rounded=0;orthogonalLoop=1;jettySize=auto;html=1;entryX=0;entryY=0.5;entryDx=0;entryDy=0;endArrow=none;endFill=0;" parent="1" source="h5iw6vHmCiw72O9xtH7j-281" target="h5iw6vHmCiw72O9xtH7j-208" edge="1">
          <mxGeometry relative="1" as="geometry">
            <Array as="points">
              <mxPoint x="919.06" y="2596" />
            </Array>
          </mxGeometry>
        </mxCell>
        <mxCell id="h5iw6vHmCiw72O9xtH7j-281" value="codigo" style="ellipse;whiteSpace=wrap;html=1;align=center;fontStyle=4;" parent="1" vertex="1">
          <mxGeometry x="889.06" y="2516" width="60" height="40" as="geometry" />
        </mxCell>
        <mxCell id="h5iw6vHmCiw72O9xtH7j-286" style="edgeStyle=orthogonalEdgeStyle;rounded=0;orthogonalLoop=1;jettySize=auto;html=1;entryX=0;entryY=0.5;entryDx=0;entryDy=0;endArrow=none;endFill=0;" parent="1" source="h5iw6vHmCiw72O9xtH7j-283" target="h5iw6vHmCiw72O9xtH7j-208" edge="1">
          <mxGeometry relative="1" as="geometry">
            <Array as="points">
              <mxPoint x="919.06" y="2596" />
            </Array>
          </mxGeometry>
        </mxCell>
        <mxCell id="h5iw6vHmCiw72O9xtH7j-283" value="&lt;span style=&quot;border-bottom: 1px dotted&quot;&gt;DNI&lt;/span&gt;" style="ellipse;whiteSpace=wrap;html=1;align=center;" parent="1" vertex="1">
          <mxGeometry x="889.06" y="2626" width="60" height="40" as="geometry" />
        </mxCell>
        <mxCell id="h5iw6vHmCiw72O9xtH7j-287" value="Resultado final:" style="text;html=1;align=left;verticalAlign=middle;resizable=0;points=[];autosize=1;strokeColor=none;fillColor=none;" parent="1" vertex="1">
          <mxGeometry x="880.63" y="2236" width="110" height="30" as="geometry" />
        </mxCell>
        <mxCell id="o4CUFiM8ImX0yRowo5gB-2" value="(1,1)" style="text;html=1;align=center;verticalAlign=middle;resizable=0;points=[];autosize=1;strokeColor=none;fillColor=none;" parent="1" vertex="1">
          <mxGeometry x="1042.19" y="2546" width="50" height="30" as="geometry" />
        </mxCell>
      </root>
    </mxGraphModel>
  </diagram>
</mxfile>
